HIERARCHY
ROOT Hips
{
	OFFSET -0.001795 -0.223333 0.028219
	CHANNELS 6 Xposition Yposition Zposition Zrotation Yrotation Xrotation 
	JOINT LeftUpLeg
	{
		OFFSET 0.069520 -0.091406 -0.006815
		CHANNELS 3 Zrotation Yrotation Xrotation
		JOINT LeftLeg
		{
			OFFSET 0.034277 -0.375199 -0.004496
			CHANNELS 3 Zrotation Yrotation Xrotation
			JOINT LeftFoot
			{
				OFFSET -0.013596 -0.397961 -0.043693
				CHANNELS 3 Zrotation Yrotation Xrotation
				JOINT LeftToe
				{
					OFFSET 0.026358 -0.055791 0.119288
					CHANNELS 3 Zrotation Yrotation Xrotation
					End Site
					{
						OFFSET 0.000000 0.000000 0.000000
					}
				}
			}
		}
	}
	JOINT RightUpLeg
	{
		OFFSET -0.067670 -0.090522 -0.004320
		CHANNELS 3 Zrotation Yrotation Xrotation
		JOINT RightLeg
		{
			OFFSET -0.038290 -0.382569 -0.008850
			CHANNELS 3 Zrotation Yrotation Xrotation
			JOINT RightFoot
			{
				OFFSET 0.015774 -0.398415 -0.042312
				CHANNELS 3 Zrotation Yrotation Xrotation
				JOINT RightToe
				{
					OFFSET -0.025372 -0.048144 0.123348
					CHANNELS 3 Zrotation Yrotation Xrotation
					End Site
					{
						OFFSET 0.000000 0.000000 0.000000
					}
				}
			}
		}
	}
	JOINT Spine
	{
		OFFSET -0.002533 0.108963 -0.026696
		CHANNELS 3 Zrotation Yrotation Xrotation
		JOINT Spine1
		{
			OFFSET 0.005487 0.135180 0.001092
			CHANNELS 3 Zrotation Yrotation Xrotation
			JOINT Spine2
			{
				OFFSET 0.001457 0.052922 0.025425
				CHANNELS 3 Zrotation Yrotation Xrotation
				JOINT Neck
				{
					OFFSET -0.002778 0.213870 -0.042857
					CHANNELS 3 Zrotation Yrotation Xrotation
					JOINT Head
					{
						OFFSET 0.005152 0.064970 0.051349
						CHANNELS 3 Zrotation Yrotation Xrotation
						End Site
						{
							OFFSET 0.000000 0.000000 0.000000
						}
					}
				}
				JOINT LeftShoulder
				{
					OFFSET 0.078845 0.121749 -0.034090
					CHANNELS 3 Zrotation Yrotation Xrotation
					JOINT LeftArm
					{
						OFFSET 0.090977 0.030469 -0.008868
						CHANNELS 3 Zrotation Yrotation Xrotation
						JOINT LeftForeArm
						{
							OFFSET 0.259612 -0.012772 -0.027456
							CHANNELS 3 Zrotation Yrotation Xrotation
							JOINT LeftHand
							{
								OFFSET 0.249234 0.008986 -0.001171
								CHANNELS 3 Zrotation Yrotation Xrotation
								End Site
								{
									OFFSET 0.000000 0.000000 0.000000
								}
							}
						}
					}
				}
				JOINT RightShoulder
				{
					OFFSET -0.081759 0.118833 -0.038615
					CHANNELS 3 Zrotation Yrotation Xrotation
					JOINT RightArm
					{
						OFFSET -0.096012 0.032551 -0.009143
						CHANNELS 3 Zrotation Yrotation Xrotation
						JOINT RightForeArm
						{
							OFFSET -0.253742 -0.013329 -0.021401
							CHANNELS 3 Zrotation Yrotation Xrotation
							JOINT RightHand
							{
								OFFSET -0.255298 0.007772 -0.005559
								CHANNELS 3 Zrotation Yrotation Xrotation
								End Site
								{
									OFFSET 0.000000 0.000000 0.000000
								}
							}
						}
					}
				}
			}
		}
	}
}
MOTION
Frames: 16
Frame Time: 0.050000
-1.359642 0.935555 0.933177 -175.116200 69.575632 -170.795958 0.657421 -3.177862 -18.474380 -6.413276 -3.581230 10.994377 3.016325 3.816772 11.350553 0.000000 0.000000 0.000000 -3.456300 -4.859846 -11.835260 6.026132 -4.287611 0.997340 -20.216227 -23.792543 24.392337 0.000000 0.000000 0.000000 -14.238081 -11.935704 37.285547 2.744701 2.211388 -23.325446 11.002254 23.192503 32.950600 2.823420 7.931839 -22.905340 0.000000 0.000000 0.000000 -21.858134 -19.066533 -30.991487 -37.322655 14.878537 -2.018977 -45.072468 -38.657094 12.482488 0.000000 0.000000 0.000000 20.394172 5.092773 28.096820 32.766595 43.003139 5.676029 -5.978334 30.028495 -1.963490 0.000000 0.000000 0.000000 
-1.357841 0.935718 0.931644 -175.121069 70.069793 -171.009640 0.543166 -2.987012 -17.971022 -6.409993 -3.522994 10.843678 3.173564 3.964054 11.230925 0.000000 0.000000 0.000000 -3.496130 -4.693353 -11.352242 5.906661 -4.134974 0.691193 -20.013206 -23.694351 24.239394 0.000000 0.000000 0.000000 -14.275617 -11.644303 36.945921 3.725920 2.113871 -23.528697 10.840236 22.924348 32.954877 2.776385 8.036984 -23.111196 0.000000 0.000000 0.000000 -22.056629 -18.868901 -31.124184 -38.102560 14.077674 -1.767507 -42.191874 -37.233551 10.910672 0.000000 0.000000 0.000000 21.396165 4.380426 28.330724 32.945248 41.732943 4.831165 -5.471212 31.274867 -1.905419 0.000000 0.000000 0.000000 
-1.356270 0.936164 0.930484 -175.766067 69.905427 -172.085315 0.113980 -2.807514 -17.502345 -6.265136 -3.555304 11.161713 2.909773 3.721875 11.178509 0.000000 0.000000 0.000000 -3.479877 -4.445551 -10.398065 5.329919 -3.749464 0.107135 -20.343355 -24.164770 24.620714 0.000000 0.000000 0.000000 -13.427956 -11.356468 36.253149 4.042003 2.151025 -22.938035 10.179011 21.992252 32.452909 2.275426 8.180868 -23.297112 0.000000 0.000000 0.000000 -22.636027 -19.743705 -30.972651 -38.051326 13.342838 -1.298795 -39.864946 -36.396221 10.072558 0.000000 0.000000 0.000000 21.958699 3.971954 28.345979 33.627995 40.573786 4.386804 -5.737365 32.355944 -1.973184 0.000000 0.000000 0.000000 
-1.355247 0.937074 0.929489 -175.289599 70.739591 -171.694678 -0.008007 -2.734498 -17.338176 -5.838212 -3.413156 11.248024 3.075468 4.155838 11.276464 0.000000 0.000000 0.000000 -3.124919 -4.099583 -10.133999 4.853026 -3.383086 -0.332076 -20.200644 -23.769508 24.897879 0.000000 0.000000 0.000000 -13.077928 -10.863218 35.520214 4.679806 2.069036 -22.971931 10.124206 21.685591 32.439135 2.054442 8.391604 -23.665311 0.000000 0.000000 0.000000 -22.815999 -19.459116 -31.055413 -38.749644 13.270693 -1.338141 -39.199912 -35.548106 9.486489 0.000000 0.000000 0.000000 22.564116 4.097129 28.795086 33.358395 39.766242 3.760845 -5.635346 33.148566 -2.003079 0.000000 0.000000 0.000000 
-1.354701 0.937949 0.928727 -175.187847 71.600641 -171.815647 -0.136122 -2.562975 -16.857746 -5.675278 -3.281987 11.010332 3.181404 4.589895 11.446226 0.000000 0.000000 0.000000 -2.854011 -3.781392 -9.715519 4.262216 -2.978574 -0.801059 -20.034052 -23.401309 25.123568 0.000000 0.000000 0.000000 -12.358630 -10.566147 35.056776 4.926442 2.047494 -22.707665 9.721885 21.745251 32.353759 2.170164 8.406802 -23.813724 0.000000 0.000000 0.000000 -22.524747 -19.252397 -30.441615 -39.558883 12.989073 -1.562181 -38.899359 -35.999420 9.229961 0.000000 0.000000 0.000000 23.312392 3.944394 29.184513 32.809091 39.938256 3.355581 -5.670817 33.126697 -2.028562 0.000000 0.000000 0.000000 
-1.354550 0.938463 0.927926 -174.872409 72.773262 -171.390431 -0.148523 -2.607596 -17.029713 -5.636228 -3.228194 11.216164 3.635568 5.494747 11.717360 0.000000 0.000000 0.000000 -2.778267 -3.609292 -9.621715 4.154273 -2.759344 -1.438585 -19.550104 -22.665672 25.042951 0.000000 0.000000 0.000000 -11.631267 -9.991366 34.101089 5.120222 2.002700 -22.240974 9.202154 21.441947 32.140296 2.166098 8.620649 -24.499116 0.000000 0.000000 0.000000 -22.275817 -19.069705 -29.822929 -40.493455 12.739395 -1.789105 -38.667441 -36.760926 9.019524 0.000000 0.000000 0.000000 23.833031 4.081817 29.513991 32.414600 39.765582 2.949568 -5.492567 33.424564 -1.985675 0.000000 0.000000 0.000000 
-1.354807 0.938849 0.927260 -174.708348 73.639089 -171.270955 -0.376707 -2.560245 -16.931398 -5.276986 -3.100936 11.213019 3.850303 5.980581 11.829929 0.000000 0.000000 0.000000 -2.732697 -3.384102 -9.056721 4.019127 -2.492257 -2.595670 -19.276855 -22.170440 25.221345 0.000000 0.000000 0.000000 -10.900725 -9.860614 33.846312 5.041817 1.988892 -22.529711 9.467072 21.315682 32.447471 2.470845 8.867414 -25.117386 0.000000 0.000000 0.000000 -22.361845 -18.533773 -29.840653 -40.931383 12.890781 -2.030129 -39.746659 -37.441136 9.492290 0.000000 0.000000 0.000000 24.057217 3.974280 29.371383 32.016550 39.650425 2.775795 -5.156846 33.670412 -1.857334 0.000000 0.000000 0.000000 
-1.355497 0.939020 0.926658 -174.493774 74.544992 -170.806666 -0.594620 -2.711845 -17.412309 -4.910908 -3.049081 11.592202 4.214402 6.706295 12.048753 0.000000 0.000000 0.000000 -2.760825 -3.344372 -9.177060 4.055648 -2.395389 -3.148086 -18.853249 -21.486785 25.143205 0.000000 0.000000 0.000000 -9.917331 -9.313606 32.790401 5.181594 1.947324 -21.908672 8.784360 20.944367 32.016386 2.711880 8.923402 -25.632955 0.000000 0.000000 0.000000 -22.665567 -18.496173 -29.791480 -41.201404 13.147270 -2.118505 -39.984150 -38.430563 9.782376 0.000000 0.000000 0.000000 24.579332 3.944872 29.684191 31.151088 39.558643 2.277766 -5.028493 34.034124 -1.811908 0.000000 0.000000 0.000000 
-1.356699 0.939590 0.926404 -174.111422 75.469169 -170.194919 -0.637727 -2.792187 -17.672864 -4.727415 -2.952680 11.533426 4.468031 7.405901 12.394895 0.000000 0.000000 0.000000 -2.918893 -3.299863 -9.053036 4.431631 -2.390642 -4.163056 -18.385635 -20.591734 25.289020 0.000000 0.000000 0.000000 -9.533551 -9.154069 32.555922 5.174304 1.920827 -22.088746 8.889335 20.776442 31.966877 2.882451 9.039018 -25.883199 0.000000 0.000000 0.000000 -22.989011 -18.266826 -29.823414 -41.343700 13.230726 -2.153126 -40.533482 -38.711688 10.064073 0.000000 0.000000 0.000000 24.384065 4.097094 29.297094 31.016889 39.279717 2.260618 -4.066723 34.475373 -1.463063 0.000000 0.000000 0.000000 
-1.358268 0.939701 0.926377 -173.645706 76.366771 -169.478448 -0.577019 -2.915128 -18.022613 -4.701564 -2.897976 11.527078 4.857102 8.143998 12.697423 0.000000 0.000000 0.000000 -3.027681 -3.317614 -9.232850 4.761365 -2.432532 -4.719016 -17.880524 -19.779469 25.201283 0.000000 0.000000 0.000000 -9.091526 -9.021467 32.344738 5.097676 1.899075 -22.258079 8.772945 20.909283 32.243763 3.136075 8.889371 -25.458434 0.000000 0.000000 0.000000 -23.244710 -18.633458 -29.842330 -41.630945 12.776987 -1.891632 -40.477918 -39.249167 10.173122 0.000000 0.000000 0.000000 24.290680 3.887899 29.000264 30.555162 39.195328 2.146322 -4.484241 35.711168 -1.454160 0.000000 0.000000 0.000000 
-1.359821 0.940248 0.926707 -173.205480 77.284030 -168.735398 -0.391745 -3.036159 -18.376023 -4.874750 -2.848280 11.404750 5.166783 8.965026 13.174919 0.000000 0.000000 0.000000 -3.064200 -3.307313 -9.545954 4.964162 -2.425900 -5.149618 -17.421432 -18.925609 25.263449 0.000000 0.000000 0.000000 -8.908042 -8.877808 32.201018 4.981023 1.895548 -22.167455 8.533479 20.823853 32.018657 3.279780 8.829760 -25.397697 0.000000 0.000000 0.000000 -23.637828 -18.785009 -29.694797 -41.897500 12.394568 -1.688201 -40.294495 -39.733785 10.243962 0.000000 0.000000 0.000000 23.591277 4.008999 28.128223 30.855209 38.663275 2.347351 -4.919605 37.089381 -1.361164 0.000000 0.000000 0.000000 
-1.360865 0.940397 0.927262 -172.263732 78.278278 -167.853899 0.040324 -3.006554 -18.295451 -5.384603 -2.844383 11.256535 5.688209 9.767047 13.510964 0.000000 0.000000 0.000000 -2.934984 -3.166353 -9.550511 5.008429 -2.390418 -5.409733 -16.933918 -18.272527 25.096217 0.000000 0.000000 0.000000 -8.811513 -8.880569 32.350761 4.860996 1.894375 -22.085119 8.423489 20.755429 32.106836 3.357972 8.756779 -24.913252 0.000000 0.000000 0.000000 -24.062741 -19.072292 -29.465852 -42.252932 11.692640 -1.345506 -39.561898 -40.064422 10.056607 0.000000 0.000000 0.000000 23.386364 4.224039 27.691813 30.702035 38.204586 2.246675 -5.288541 38.951483 -1.300370 0.000000 0.000000 0.000000 
-1.361361 0.940632 0.928118 -171.412998 78.846776 -166.891082 0.094733 -2.976409 -18.232103 -5.094052 -2.703991 10.898780 5.860194 10.016126 13.605428 0.000000 0.000000 0.000000 -2.820745 -2.987854 -9.204271 5.142999 -2.365869 -6.482237 -16.691521 -17.772981 25.344320 0.000000 0.000000 0.000000 -8.933771 -8.800366 32.330183 4.880642 1.869335 -22.116276 8.406921 20.484061 32.216290 3.176657 8.739172 -24.512222 0.000000 0.000000 0.000000 -24.375270 -19.102869 -29.405177 -42.386810 11.619840 -1.265662 -39.216490 -40.705265 10.134885 0.000000 0.000000 0.000000 22.927149 4.132460 26.948279 31.596777 37.460746 2.375350 -5.922792 40.909657 -1.229042 0.000000 0.000000 0.000000 
-1.361541 0.940570 0.929194 -169.090044 79.586909 -164.441836 0.591077 -2.995421 -18.280720 -5.136461 -2.627523 10.698311 6.366961 10.538695 13.706045 0.000000 0.000000 0.000000 -2.400908 -2.762551 -9.337173 5.181783 -2.349341 -6.777176 -16.354706 -17.294687 25.271787 0.000000 0.000000 0.000000 -9.097740 -8.811693 32.530128 4.574850 1.896686 -21.775517 8.338686 20.293555 32.068041 3.004572 8.484311 -23.282180 0.000000 0.000000 0.000000 -24.158255 -18.328177 -28.830575 -42.606902 10.855052 -1.320642 -39.392253 -41.520207 10.321661 0.000000 0.000000 0.000000 23.471522 4.149189 26.974842 31.858489 37.208076 2.129304 -6.329630 42.604972 -1.261528 0.000000 0.000000 0.000000 
-1.361887 0.940518 0.930250 -167.192675 80.049320 -162.313910 0.975849 -2.940878 -18.103352 -5.092841 -2.469272 9.891309 6.627202 10.706348 13.710240 0.000000 0.000000 0.000000 -2.003367 -2.588492 -9.532735 5.104989 -2.300323 -7.106780 -16.174433 -16.966012 25.331920 0.000000 0.000000 0.000000 -9.446036 -8.832765 32.760743 5.017270 1.788540 -21.688572 8.152468 20.328058 32.735203 3.269537 8.317436 -22.911144 0.000000 0.000000 0.000000 -24.125997 -17.967579 -28.648464 -42.692308 10.449569 -1.282258 -39.069224 -42.245493 10.411006 0.000000 0.000000 0.000000 23.970716 3.651135 26.870268 32.014744 37.077968 1.902315 -7.257910 44.721968 -1.410572 0.000000 0.000000 0.000000 
-1.362808 0.939961 0.931042 -163.969070 80.823885 -158.768747 1.473017 -2.955066 -18.123184 -5.069205 -2.326682 9.214031 7.215947 11.192775 13.728924 0.000000 0.000000 0.000000 -1.738010 -2.466358 -9.839955 5.480915 -2.400797 -7.536189 -15.699379 -16.315739 25.167478 0.000000 0.000000 0.000000 -9.849975 -8.746735 32.885356 4.968222 1.766511 -21.300352 8.328704 20.558067 32.973034 3.028597 8.309291 -22.556082 0.000000 0.000000 0.000000 -23.993861 -17.442967 -28.387876 -42.978849 9.982756 -1.326644 -39.235449 -43.168128 10.663558 0.000000 0.000000 0.000000 24.157718 3.513567 26.692663 32.772453 37.228009 2.034510 -7.832609 46.331090 -1.448762 0.000000 0.000000 0.000000 
